<svg viewBox="0 0 32 32" xmlns="http://www.w3.org/2000/svg"><g data-name="backpack, bag, school, travel, rucksack, luggage, schoolbag, baggage, backpacker, traveler"><path d="M27 18h-1v-2a9.9 9.9 0 0 0-2-6V5a3 3 0 0 0-6 0v1.2a10.1 10.1 0 0 0-4 0V5a3 3 0 0 0-6 0v5a9.9 9.9 0 0 0-2 6v2H5a3 3 0 0 0-3 3v5a1 1 0 0 0 1 1h3a3 3 0 0 0 3 3h14a3 3 0 0 0 3-3h3a1 1 0 0 0 1-1v-5a3 3 0 0 0-3-3ZM20 5a1 1 0 0 1 2 0v3a9.57 9.57 0 0 0-2-1.18Zm3.41 8H8.59a8 8 0 0 1 14.82 0ZM11 4a1 1 0 0 1 1 1v1.84A9.57 9.57 0 0 0 10 8V5a1 1 0 0 1 1-1ZM4 25v-4a1 1 0 0 1 1-1h1v5Zm20 2a1 1 0 0 1-1 1H9a1 1 0 0 1-1-1s0-11.67.07-12h15.86c.07.33.07 12 .07 12Zm4-2h-2v-5h1a1 1 0 0 1 1 1Z" fill="#ffffff" class="fill-000000"></path><path d="M19 17h-6a3 3 0 0 0-3 3v5a1 1 0 0 0 1 1h10a1 1 0 0 0 1-1v-5a3 3 0 0 0-3-3Zm1 7h-8v-4a1 1 0 0 1 1-1h6a1 1 0 0 1 1 1Z" fill="#ffffff" class="fill-000000"></path></g></svg>