<svg data-name="016_FOOD" viewBox="0 0 24 24" xmlns="http://www.w3.org/2000/svg"><path d="M16.5 22a1 1 0 0 1-.5-.13l-1.38-.8a1 1 0 0 1 1-1.73l.88.51 3.5-2v-4l-3.5-2-3.5 2V18a1 1 0 0 1-2 0v-4.8a1 1 0 0 1 .5-.87L16 9.74a1 1 0 0 1 1 0l4.5 2.6a1 1 0 0 1 .5.87v5.19a1 1 0 0 1-.5.87l-4.5 2.6a1 1 0 0 1-.5.13Z" fill="#ffffff" class="fill-333333"></path><path d="M7.5 22a1 1 0 0 1-.5-.13l-4.5-2.6a1 1 0 0 1-.5-.87v-5.19a1 1 0 0 1 .5-.87L7 9.74a1 1 0 0 1 1 0l4.5 2.6a1 1 0 1 1-1 1.73l-4-2.31-3.5 2v4l3.5 2 4-2.31a1 1 0 0 1 1.37.36 1 1 0 0 1-.37 1.37L8 21.87a1 1 0 0 1-.5.13Z" fill="#ffffff" class="fill-333333"></path><path d="M16.5 11.6a1 1 0 0 1-1-1V6L12 4 8.5 6v4.6a1 1 0 1 1-2 0V5.41a1 1 0 0 1 .5-.87l4.5-2.6a1 1 0 0 1 1 0l4.5 2.6a1 1 0 0 1 .5.87v5.19a1 1 0 0 1-1 1Z" fill="#ffffff" class="fill-333333"></path></svg>